<?xml version="1.0" encoding="utf-8"?>
<!-- Generator: Adobe Illustrator 25.3.0, SVG Export Plug-In . SVG Version: 6.00 Build 0)  -->
<svg version="1.1" id="Layer_1" xmlns="http://www.w3.org/2000/svg" xmlns:xlink="http://www.w3.org/1999/xlink" x="0px" y="0px"
	 viewBox="0 0 510.8 510.8" style="enable-background:new 0 0 510.8 510.8;" xml:space="preserve">
<style type="text/css">
	.st0{fill:#0085CC;}
</style>
<g>
	<g>
		<path class="st0" d="M266.4,417.5H441c19.8,0,34.9-15.1,34.9-34.9V135.9c14-4.7,23.3-17.5,23.3-32.6c1.2-19.8-14-34.9-33.7-34.9
			H46.6c-19.8,0-34.9,15.1-34.9,34.9s15.1,34.9,34.9,34.9H419c7,0,11.6-4.7,11.6-11.6c0-7-4.7-11.6-11.6-11.6H46.5
			c-7,0-11.6-4.7-11.6-11.6s4.7-11.6,11.6-11.6h418.9c7,0,11.6,4.7,11.6,11.6s-4.7,11.6-11.6,11.6c-7,0-11.6,4.7-11.6,11.6v256
			c0,7-4.7,11.6-11.6,11.6H69.8c-7,0-11.6-4.7-11.6-11.6V173.2c0-7-4.7-11.6-11.6-11.6S35,166.3,35,173.2v209.5
			c0,19.8,15.1,34.9,34.9,34.9h174.5"/>
		<path d="M406.5,68.4"/>
	</g>
</g>
<g>
	<g>
		<path class="st0" d="M303.1,245.9l-81.5-58.2c-3.5-2.3-8.1-2.3-11.6-1.2c-4.7,2.3-7,5.8-7,10.5v116.4c0,4.7,2.3,8.1,5.8,10.5
			c2.3,1.2,3.5,1.2,5.8,1.2s4.7-1.2,7-2.3l81.5-58.2c3.5-2.3,4.7-5.8,4.7-9.3C307.8,251.7,305.5,248.2,303.1,245.9z M226.3,291.3
			v-72.1l50,36.1L226.3,291.3z"/>
	</g>
</g>
</svg>
